HIERARCHY
ROOT Hips
{
	OFFSET 7.739027 1.324544 -7.282124
	CHANNELS 6 Xposition Yposition Zposition Zrotation Yrotation Xrotation 
	JOINT Spine
	{
		OFFSET -0.000035 8.340413 -2.713930
		CHANNELS 3 Zrotation Yrotation Xrotation
		JOINT Spine1
		{
			OFFSET 0.000035 11.909936 -2.100032
			CHANNELS 3 Zrotation Yrotation Xrotation
			JOINT Spine2
			{
				OFFSET 0.000035 12.047686 -1.054081
				CHANNELS 3 Zrotation Yrotation Xrotation
				JOINT Spine3
				{
					OFFSET -0.000053 12.093753 -0.000048
					CHANNELS 3 Zrotation Yrotation Xrotation
					JOINT Neck
					{
						OFFSET 0.000010 15.549125 1.554853
						CHANNELS 3 Zrotation Yrotation Xrotation
						JOINT Neck1
						{
							OFFSET 0.000060 4.687353 0.410086
							CHANNELS 3 Zrotation Yrotation Xrotation
							JOINT Head
							{
								OFFSET 0.000034 4.633803 0.816988
								CHANNELS 3 Zrotation Yrotation Xrotation
								JOINT HeadEnd
								{
									OFFSET -0.000021 9.727690 -0.000047
									CHANNELS 3 Zrotation Yrotation Xrotation
									End Site
									{
										OFFSET 0.000000 0.000000 0.000000
									}
								}
							}
						}
					}
					JOINT RightShoulder
					{
						OFFSET -0.000005 11.106444 6.072607
						CHANNELS 3 Zrotation Yrotation Xrotation
						JOINT RightArm
						{
							OFFSET -19.427908 0.000036 0.000046
							CHANNELS 3 Zrotation Yrotation Xrotation
							JOINT RightForeArm
							{
								OFFSET -29.350734 -0.000028 -0.000061
								CHANNELS 3 Zrotation Yrotation Xrotation
								JOINT RightHand
								{
									OFFSET -27.018024 -0.000044 0.000019
									CHANNELS 3 Zrotation Yrotation Xrotation
									JOINT RightHandMiddle1
									{
										OFFSET -9.244048 -0.000022 -0.000011
										CHANNELS 3 Zrotation Yrotation Xrotation
										JOINT RightHandMiddle2
										{
											OFFSET -4.870019 -0.000003 0.000041
											CHANNELS 3 Zrotation Yrotation Xrotation
											JOINT RightHandMiddle3
											{
												OFFSET -3.169057 -0.000017 0.000005
												CHANNELS 3 Zrotation Yrotation Xrotation
												JOINT RightHandMiddle4
												{
													OFFSET -1.888369 0.000006 -0.000036
													CHANNELS 3 Zrotation Yrotation Xrotation
													End Site
													{
														OFFSET 0.000000 0.000000 0.000000
													}
												}
											}
										}
									}
									JOINT RightHandRing
									{
										OFFSET -0.250001 -0.249983 -0.956486
										CHANNELS 3 Zrotation Yrotation Xrotation
										JOINT RightHandRing1
										{
											OFFSET -8.140194 -0.000011 -0.734592
											CHANNELS 3 Zrotation Yrotation Xrotation
											JOINT RightHandRing2
											{
												OFFSET -4.501538 0.000018 -0.406250
												CHANNELS 3 Zrotation Yrotation Xrotation
												JOINT RightHandRing3
												{
													OFFSET -3.068849 -0.000018 -0.276966
													CHANNELS 3 Zrotation Yrotation Xrotation
													JOINT RightHandRing4
													{
														OFFSET -1.869933 0.000003 -0.168757
														CHANNELS 3 Zrotation Yrotation Xrotation
														End Site
														{
															OFFSET 0.000000 0.000000 0.000000
														}
													}
												}
											}
										}
										JOINT RightHandPinky
										{
											OFFSET -0.162985 -0.250025 -0.975118
											CHANNELS 3 Zrotation Yrotation Xrotation
											JOINT RightHandPinky1
											{
												OFFSET -6.681487 0.000005 -1.494092
												CHANNELS 3 Zrotation Yrotation Xrotation
												JOINT RightHandPinky2
												{
													OFFSET -3.580957 -0.000006 -0.800781
													CHANNELS 3 Zrotation Yrotation Xrotation
													JOINT RightHandPinky3
													{
														OFFSET -2.276495 0.000018 -0.509075
														CHANNELS 3 Zrotation Yrotation Xrotation
														JOINT RightHandPinky4
														{
															OFFSET -1.690353 0.000025 -0.377998
															CHANNELS 3 Zrotation Yrotation Xrotation
															End Site
															{
																OFFSET 0.000000 0.000000 0.000000
															}
														}
													}
												}
											}
										}
									}
									JOINT RightHandIndex
									{
										OFFSET -0.250017 -0.250013 0.956498
										CHANNELS 3 Zrotation Yrotation Xrotation
										JOINT RightHandIndex1
										{
											OFFSET -8.934100 0.000008 0.806268
											CHANNELS 3 Zrotation Yrotation Xrotation
											JOINT RightHandIndex2
											{
												OFFSET -4.694684 0.000034 0.423707
												CHANNELS 3 Zrotation Yrotation Xrotation
												JOINT RightHandIndex3
												{
													OFFSET -2.811736 -0.000019 0.253755
													CHANNELS 3 Zrotation Yrotation Xrotation
													JOINT RightHandIndex4
													{
														OFFSET -1.709979 -0.000017 0.154322
														CHANNELS 3 Zrotation Yrotation Xrotation
														End Site
														{
															OFFSET 0.000000 0.000000 0.000000
														}
													}
												}
											}
										}
										JOINT RightHandThumb1
										{
											OFFSET -0.163033 -0.750029 0.975099
											CHANNELS 3 Zrotation Yrotation Xrotation
											JOINT RightHandThumb2
											{
												OFFSET -5.411660 0.835511 2.244720
												CHANNELS 3 Zrotation Yrotation Xrotation
												JOINT RightHandThumb3
												{
													OFFSET -3.567173 0.550768 1.479603
													CHANNELS 3 Zrotation Yrotation Xrotation
													JOINT RightHandThumb4
													{
														OFFSET -2.150540 0.332036 0.892023
														CHANNELS 3 Zrotation Yrotation Xrotation
														End Site
														{
															OFFSET 0.000000 0.000000 0.000000
														}
													}
												}
											}
										}
									}
								}
							}
						}
					}
					JOINT LeftShoulder
					{
						OFFSET -0.000044 11.106441 6.072595
						CHANNELS 3 Zrotation Yrotation Xrotation
						JOINT LeftArm
						{
							OFFSET 19.427871 -0.000084 -0.000032
							CHANNELS 3 Zrotation Yrotation Xrotation
							JOINT LeftForeArm
							{
								OFFSET 29.350749 -0.000032 0.000029
								CHANNELS 3 Zrotation Yrotation Xrotation
								JOINT LeftHand
								{
									OFFSET 27.018140 -0.000022 -0.000039
									CHANNELS 3 Zrotation Yrotation Xrotation
									JOINT LeftHandMiddle1
									{
										OFFSET 9.402673 -0.000001 0.000020
										CHANNELS 3 Zrotation Yrotation Xrotation
										JOINT LeftHandMiddle2
										{
											OFFSET 4.950101 0.000005 0.000038
											CHANNELS 3 Zrotation Yrotation Xrotation
											JOINT LeftHandMiddle3
											{
												OFFSET 3.211986 -0.000035 -0.000023
												CHANNELS 3 Zrotation Yrotation Xrotation
												JOINT LeftHandMiddle4
												{
													OFFSET 1.927593 0.000016 -0.000077
													CHANNELS 3 Zrotation Yrotation Xrotation
													End Site
													{
														OFFSET 0.000000 0.000000 0.000000
													}
												}
											}
										}
									}
									JOINT LeftHandRing
									{
										OFFSET 0.249977 -0.249994 -0.906121
										CHANNELS 3 Zrotation Yrotation Xrotation
										JOINT LeftHandRing1
										{
											OFFSET 8.286075 0.000016 -0.747777
											CHANNELS 3 Zrotation Yrotation Xrotation
											JOINT LeftHandRing2
											{
												OFFSET 4.585455 -0.000017 -0.413800
												CHANNELS 3 Zrotation Yrotation Xrotation
												JOINT LeftHandRing3
												{
													OFFSET 3.124403 0.000014 -0.281965
													CHANNELS 3 Zrotation Yrotation Xrotation
													JOINT LeftHandRing4
													{
														OFFSET 1.908761 -0.000043 -0.172245
														CHANNELS 3 Zrotation Yrotation Xrotation
														End Site
														{
															OFFSET 0.000000 0.000000 0.000000
														}
													}
												}
											}
										}
										JOINT LeftHandPinky
										{
											OFFSET 0.167548 -0.250006 -0.924988
											CHANNELS 3 Zrotation Yrotation Xrotation
											JOINT LeftHandPinky1
											{
												OFFSET 6.823489 0.000016 -1.525883
												CHANNELS 3 Zrotation Yrotation Xrotation
												JOINT LeftHandPinky2
												{
													OFFSET 3.642846 0.000010 -0.814594
													CHANNELS 3 Zrotation Yrotation Xrotation
													JOINT LeftHandPinky3
													{
														OFFSET 2.333083 -0.000022 -0.521751
														CHANNELS 3 Zrotation Yrotation Xrotation
														JOINT LeftHandPinky4
														{
															OFFSET 1.725457 -0.000008 -0.385863
															CHANNELS 3 Zrotation Yrotation Xrotation
															End Site
															{
																OFFSET 0.000000 0.000000 0.000000
															}
														}
													}
												}
											}
										}
									}
									JOINT LeftHandIndex
									{
										OFFSET 0.250026 -0.250006 0.906161
										CHANNELS 3 Zrotation Yrotation Xrotation
										JOINT LeftHandIndex1
										{
											OFFSET 9.088003 -0.000016 0.820121
											CHANNELS 3 Zrotation Yrotation Xrotation
											JOINT LeftHandIndex2
											{
												OFFSET 4.776542 0.000017 0.431074
												CHANNELS 3 Zrotation Yrotation Xrotation
												JOINT LeftHandIndex3
												{
													OFFSET 2.865121 -0.000001 0.258579
													CHANNELS 3 Zrotation Yrotation Xrotation
													JOINT LeftHandIndex4
													{
														OFFSET 1.745467 -0.000001 0.157507
														CHANNELS 3 Zrotation Yrotation Xrotation
														End Site
														{
															OFFSET 0.000000 0.000000 0.000000
														}
													}
												}
											}
										}
										JOINT LeftHandThumb1
										{
											OFFSET 0.167535 -0.749983 0.924975
											CHANNELS 3 Zrotation Yrotation Xrotation
											JOINT LeftHandThumb2
											{
												OFFSET 5.551443 0.857131 2.302699
												CHANNELS 3 Zrotation Yrotation Xrotation
												JOINT LeftHandThumb3
												{
													OFFSET 3.625641 0.559782 1.503880
													CHANNELS 3 Zrotation Yrotation Xrotation
													JOINT LeftHandThumb4
													{
														OFFSET 2.195255 0.338950 0.910537
														CHANNELS 3 Zrotation Yrotation Xrotation
														End Site
														{
															OFFSET 0.000000 0.000000 0.000000
														}
													}
												}
											}
										}
									}
								}
							}
						}
					}
				}
			}
		}
	}
	JOINT RightUpLeg
	{
		OFFSET -8.786542 -0.000042 0.000030
		CHANNELS 3 Zrotation Yrotation Xrotation
		JOINT RightLeg
		{
			OFFSET -0.000023 -42.170384 -0.000015
			CHANNELS 3 Zrotation Yrotation Xrotation
			JOINT RightFoot
			{
				OFFSET -0.000019 -45.949131 -0.000039
				CHANNELS 3 Zrotation Yrotation Xrotation
				JOINT RightForeFoot
				{
					OFFSET 0.000025 -4.685800 -0.000032
					CHANNELS 3 Zrotation Yrotation Xrotation
					JOINT RightToeBase
					{
						OFFSET -0.000006 0.000033 18.351078
						CHANNELS 3 Zrotation Yrotation Xrotation
						JOINT RightToeBaseEnd
						{
							OFFSET 0.000068 -0.000032 6.416889
							CHANNELS 3 Zrotation Yrotation Xrotation
							End Site
							{
								OFFSET 0.000000 0.000000 0.000000
							}
						}
					}
				}
			}
		}
	}
	JOINT LeftUpLeg
	{
		OFFSET 8.786502 0.000044 0.000007
		CHANNELS 3 Zrotation Yrotation Xrotation
		JOINT LeftLeg
		{
			OFFSET -0.000017 -42.170424 0.000028
			CHANNELS 3 Zrotation Yrotation Xrotation
			JOINT LeftFoot
			{
				OFFSET 0.000004 -45.949144 -0.000033
				CHANNELS 3 Zrotation Yrotation Xrotation
				JOINT LeftForeFoot
				{
					OFFSET 0.000016 -4.685836 0.000011
					CHANNELS 3 Zrotation Yrotation Xrotation
					JOINT LeftToeBase
					{
						OFFSET 0.000050 -0.000020 18.351065
						CHANNELS 3 Zrotation Yrotation Xrotation
						JOINT LeftToeBaseEnd
						{
							OFFSET 0.000029 0.000025 7.521984
							CHANNELS 3 Zrotation Yrotation Xrotation
							End Site
							{
								OFFSET 0.000000 0.000000 0.000000
							}
						}
					}
				}
			}
		}
	}
}
MOTION
Frames: 4
Frame Time: 0.066667
5.153581 1.233819 2.479952 0.374912 22.647383 -4.304190 1.219956 -0.671813 2.736524 -0.266817 0.069410 -1.909965 -0.506240 1.143086 0.761560 1.167070 0.825281 7.989420 7.413867 -3.287257 4.474185 -12.140932 1.138968 5.029425 -3.421701 0.583285 1.317293 -0.000762 -0.000476 0.000674 11.129600 -10.357609 -2.015274 51.665070 -0.182498 -4.639478 179.998032 66.384911 122.908318 38.697727 -26.270029 -0.400638 15.949781 -7.223031 -0.004345 11.998423 0.000155 -0.000431 15.495318 0.000604 -0.000360 -0.000519 -0.001118 0.000630 -0.897290 -2.151567 -10.635228 18.220802 -8.482112 -1.612068 19.992859 0.291570 -1.768361 13.589373 0.147914 -1.213843 -0.000865 -0.000358 0.001373 -2.476491 -4.492833 -4.769039 14.896404 -6.642152 -3.232776 27.915583 1.445411 -5.999232 20.374767 0.768944 -4.465939 -0.000926 -0.001428 0.000794 -1.513943 7.365650 -1.073995 7.535753 -4.901086 0.669001 2.398898 0.009202 0.216491 11.903990 -0.104793 1.066564 0.001104 0.001675 -0.001870 6.037119 12.182131 41.323708 -0.419610 1.801674 0.116449 5.115219 -3.312721 1.497148 -0.000042 0.000739 -0.000623 -12.764363 7.293552 -1.669335 -50.914955 1.538512 16.918154 -179.995102 -54.621639 134.056854 -27.357702 24.241936 -0.564950 -13.523955 3.892447 -0.000097 -4.291164 -0.000183 -0.000029 -10.701592 -0.000161 0.002009 -0.001050 -0.000322 -0.000468 -0.812513 0.807583 -9.643230 -8.032833 1.650223 -0.721779 -13.513898 -0.135859 -1.204029 -2.439711 -0.003699 -0.220518 0.002223 -0.000337 0.001121 -0.376790 0.152775 -10.477212 -0.469863 12.456837 -0.101764 -14.549397 -0.390590 -3.216856 -15.099521 -0.436251 -3.341211 0.002375 -0.000178 0.000051 2.170447 -6.040183 -2.418719 -14.853615 0.399077 1.326603 -1.659826 0.000287 0.146068 -5.684115 0.022446 0.512472 0.000537 -0.000187 0.000956 -9.618347 1.196014 40.899151 3.003170 2.728846 -1.670111 0.000000 0.000000 0.000000 -0.000722 -0.000042 -0.000366 -4.241705 -5.138452 13.363832 -0.002386 0.000877 0.964930 -0.000000 -0.000000 -0.000000 0.000000 -0.000000 -0.000000 -0.000000 0.000000 0.000000 0.000000 0.000000 0.000000 3.563429 -9.030781 11.069303 -0.000628 -0.000988 -0.083959 -0.000000 0.000000 -0.000000 -0.000000 -0.000000 0.000000 -0.000000 0.000000 0.000000 0.000000 -0.000000 -0.000000 
5.081833 1.230655 2.540665 0.393269 22.482437 -4.319140 1.253701 -0.678002 2.704469 -0.255578 0.058788 -1.927710 -0.487517 1.044383 0.693323 1.155218 0.800281 7.911395 7.109731 -3.108136 4.493788 -12.054305 1.276395 4.989680 -3.431093 0.593855 1.334404 -0.000538 -0.000637 0.000724 10.870391 -10.374890 -1.972254 50.788559 0.113251 -4.472069 179.997711 68.443863 123.571678 36.858780 -26.131981 -0.374219 15.051599 -7.672582 -0.004909 12.269212 -0.000041 -0.000061 15.155513 0.000806 -0.000747 -0.000616 -0.001450 0.000317 -1.055692 -2.171648 -10.104471 16.819872 -8.609976 -1.491238 19.632074 0.300726 -1.737651 13.418932 0.146044 -1.198606 -0.000849 -0.000042 0.001390 -2.485999 -4.597795 -4.758396 13.493260 -6.804681 -2.935087 27.683323 1.454919 -5.954774 20.629763 0.811397 -4.519744 -0.000972 -0.001499 0.000664 -1.345008 7.357584 -0.796790 7.529774 -5.309957 0.670991 2.905857 -0.008397 0.262013 12.145168 -0.113169 1.087443 0.001230 0.001586 -0.001838 6.029859 12.293923 41.059200 -0.669042 2.226217 0.065449 4.987266 -3.236573 1.450683 0.000156 0.000693 -0.000763 -12.270339 7.263683 -1.601818 -48.233711 -0.963454 13.291025 -179.993668 -55.872997 131.777481 -31.091614 23.127497 -0.523925 -13.057136 4.149836 -0.000274 -3.958506 -0.000381 -0.000240 -10.220096 0.000107 0.001878 -0.000961 -0.000362 -0.000029 -0.812388 0.806049 -9.445582 -7.831972 1.643144 -0.703403 -12.979056 -0.126327 -1.157132 -1.990202 -0.001678 -0.179947 0.002227 -0.000331 0.001096 -0.468711 0.152480 -10.426305 -0.226458 12.054688 -0.049663 -14.280900 -0.375032 -3.158615 -14.869753 -0.423564 -3.291352 0.002511 -0.000173 0.000067 2.120793 -5.985586 -2.302096 -14.460367 0.596734 1.292809 -1.619370 0.000959 0.143081 -5.617022 0.021699 0.506602 0.000388 -0.000256 0.000889 -9.617653 1.076697 40.728256 3.082331 2.610375 -1.690083 0.000000 0.000000 0.000000 -0.000789 0.000196 -0.000405 -4.249854 -5.025563 13.223391 -0.002591 0.000772 1.129763 -0.000000 -0.000000 -0.000000 0.000000 -0.000000 0.000000 -0.000000 0.000000 0.000000 0.000000 0.000000 0.000000 3.487154 -8.818550 11.067261 -0.000397 -0.001344 0.086822 -0.000000 0.000000 -0.000000 -0.000000 0.000000 0.000000 -0.000000 0.000000 0.000000 0.000000 -0.000000 -0.000000 
4.942320 1.231482 2.627194 0.404330 22.281364 -4.353011 1.293040 -0.686810 2.683714 -0.240505 0.044866 -1.944785 -0.458527 0.901777 0.619158 1.156568 0.768166 7.823088 6.775070 -2.930541 4.515140 -11.947552 1.433400 4.966763 -3.438326 0.605685 1.358291 -0.000321 -0.000800 0.000670 10.628472 -10.391953 -1.930432 49.980186 0.422017 -3.675561 179.997665 70.480194 124.371483 35.228729 -25.994785 -0.356035 14.741989 -7.913450 -0.005596 12.267902 -0.000173 0.000242 14.783029 0.000914 -0.000829 -0.000684 -0.001384 0.000133 -1.156296 -2.151858 -9.748412 15.980217 -8.675336 -1.419087 19.188925 0.291854 -1.699390 13.166612 0.140577 -1.176440 -0.000656 0.000547 0.001284 -2.481168 -4.642578 -4.763323 12.368739 -6.783946 -2.696713 27.359438 1.430735 -5.890631 20.691133 0.823101 -4.532504 -0.001034 -0.001464 0.000821 -1.242106 7.333031 -0.664489 7.970845 -5.628479 0.712084 3.183350 -0.012990 0.286861 12.284185 -0.116568 1.099334 0.001352 0.001629 -0.002020 5.956491 12.365085 40.867195 -0.944538 2.519032 -0.008688 4.779506 -3.099475 1.391009 0.000220 0.000725 -0.001073 -11.650964 7.228354 -1.517891 -45.218250 -4.085154 9.434664 -179.992401 -58.133144 129.111572 -33.508636 21.990585 -0.458418 -12.712697 4.323081 -0.000390 -3.703290 -0.000470 -0.000635 -9.868343 0.000424 0.001534 -0.001055 -0.000071 0.000322 -0.822294 0.773041 -9.312560 -7.728531 1.622650 -0.693744 -12.484127 -0.119863 -1.114151 -1.660596 -0.000781 -0.150422 0.002375 -0.000166 0.000963 -0.551773 0.120770 -10.392529 -0.010868 11.665447 -0.002583 -14.007275 -0.362443 -3.099817 -14.702347 -0.415423 -3.254651 0.002670 -0.000195 0.000021 2.092908 -5.921507 -2.247900 -14.034143 0.806716 1.255280 -1.513950 -0.000512 0.134386 -5.583903 0.021402 0.503735 0.000067 -0.000233 0.000924 -9.551862 1.041471 40.596695 3.146423 2.609079 -1.717591 0.000000 0.000000 0.000000 -0.000687 0.000205 -0.000195 -4.225169 -4.930591 13.069086 -0.002728 0.000793 1.307103 -0.000000 -0.000000 -0.000000 0.000000 -0.000000 0.000000 -0.000000 0.000000 0.000000 0.000000 0.000000 0.000000 3.419088 -8.581039 11.063946 -0.000108 -0.001801 0.270102 -0.000000 0.000000 -0.000000 -0.000000 0.000000 0.000000 -0.000000 0.000000 0.000000 0.000000 -0.000000 -0.000000 
4.843710 1.238486 2.643001 0.406048 22.040960 -4.394941 1.327985 -0.695076 2.668132 -0.224242 0.027720 -1.961588 -0.414581 0.725208 0.540491 1.188431 0.726268 7.723046 6.430576 -2.749790 4.503111 -11.839118 1.539778 4.970074 -3.443088 0.614481 1.383003 -0.000245 -0.000893 0.000453 10.393043 -10.399304 -1.887910 49.212677 0.826134 -2.107579 179.998032 72.367996 125.282028 34.116730 -25.895292 -0.345753 14.963300 -7.911547 -0.005932 12.302926 -0.000179 0.000351 14.569827 0.000930 -0.000801 -0.000817 -0.001218 0.000107 -1.181715 -2.103060 -9.656301 15.797571 -8.659344 -1.403954 18.944376 0.287263 -1.678104 12.971548 0.136302 -1.159503 -0.000446 0.001166 0.001166 -2.461074 -4.594737 -4.776015 11.805861 -6.727758 -2.577858 27.045973 1.401739 -5.828238 20.603777 0.819477 -4.513903 -0.001136 -0.001421 0.001000 -1.223933 7.305298 -0.711826 8.546338 -5.823472 0.765513 3.433769 -0.016152 0.309213 12.361808 -0.118292 1.105877 0.001308 0.001756 -0.002198 5.836843 12.401631 40.704250 -1.293000 2.593230 -0.140909 4.609979 -2.987568 1.341797 0.000159 0.000772 -0.001306 -10.914831 7.168339 -1.415828 -42.121418 -7.627561 5.553640 -179.990585 -61.431908 125.952507 -34.343189 20.935114 -0.383609 -12.601664 4.376713 -0.000811 -3.485529 -0.000528 -0.000961 -9.689415 0.000605 0.001069 -0.001092 0.000257 0.000475 -0.853619 0.717955 -9.300621 -7.803036 1.594359 -0.700083 -12.122361 -0.114800 -1.082707 -1.470801 -0.000638 -0.133482 0.002363 -0.000128 0.000755 -0.623695 0.052023 -10.369660 0.042101 11.326603 0.009196 -13.774360 -0.352586 -3.049449 -14.590525 -0.409772 -3.229792 0.002783 -0.000113 0.000037 2.093192 -5.850883 -2.274891 -13.702051 1.002101 1.226286 -1.404234 -0.002832 0.125492 -5.543349 0.020985 0.500034 -0.000207 -0.000050 0.001075 -9.453621 1.113989 40.534157 3.192944 2.719950 -1.751174 0.000000 0.000000 0.000000 -0.000514 0.000198 0.000166 -4.170094 -4.837816 12.900292 -0.002671 0.000858 1.486170 -0.000000 -0.000000 -0.000000 0.000000 -0.000000 0.000000 -0.000000 0.000000 0.000000 0.000000 0.000000 0.000000 3.359749 -8.310660 11.065455 0.000129 -0.002125 0.455318 -0.000000 0.000000 -0.000000 -0.000000 0.000000 0.000000 -0.000000 0.000000 0.000000 0.000000 -0.000000 -0.000000 
